<?xml version="1.0" standalone="no"?>
<!DOCTYPE svg PUBLIC "-//W3C//DTD SVG 20010904//EN"
 "http://www.w3.org/TR/2001/REC-SVG-20010904/DTD/svg10.dtd">
<svg version="1.0" xmlns="http://www.w3.org/2000/svg"
 width="342.000000pt" height="317.000000pt" viewBox="0 0 342.000000 317.000000"
 preserveAspectRatio="xMidYMid meet">

<g transform="translate(0.000000,317.000000) scale(0.100000,-0.100000)"
fill="#000000" stroke="none">
<path d="M84 3090 c-65 -26 -84 -112 -35 -161 l29 -29 214 0 c117 0 219 -4
227 -9 14 -9 28 -60 217 -761 52 -195 131 -486 175 -646 43 -161 79 -294 79
-297 0 -2 -20 -7 -45 -10 -60 -9 -111 -36 -162 -88 -50 -50 -69 -88 -85 -164
-23 -115 32 -242 135 -309 63 -43 116 -55 226 -56 82 0 83 0 77 -22 -42 -148
-19 -261 74 -362 206 -223 581 -89 597 214 3 49 -1 92 -10 122 l-15 48 310 0
310 0 -6 -23 c-43 -148 -20 -259 74 -361 163 -176 455 -135 561 80 39 79 49
181 25 258 l-15 49 30 27 c41 39 41 99 0 141 l-29 29 -1029 0 c-959 0 -1030 1
-1063 18 -67 33 -74 134 -13 182 25 20 38 20 1018 20 1104 0 1059 -3 1136 67
57 52 74 91 114 265 19 84 61 268 94 408 32 140 73 318 91 395 21 93 31 154
27 183 -6 59 -51 120 -107 149 l-45 22 -1209 8 -1209 8 -61 230 c-34 127 -71
246 -82 265 -29 50 -95 96 -154 109 -60 13 -435 14 -466 1z m1271 -842 c5 -33
55 -404 55 -413 0 -3 -87 -5 -193 -5 l-192 0 -58 213 c-31 117 -57 218 -57
225 0 9 53 12 220 12 l219 0 6 -32z m635 -193 l0 -225 -189 0 -188 0 -22 163
c-12 89 -25 190 -28 225 l-6 62 217 0 216 0 0 -225z m638 210 c2 -2 -46 -377
-54 -412 -4 -23 -5 -23 -194 -23 l-190 0 0 218 c0 120 3 221 6 225 5 5 425 -2
432 -8z m587 -17 c-3 -13 -23 -102 -45 -198 -22 -96 -42 -185 -45 -197 -5 -23
-7 -23 -177 -23 l-171 0 6 58 c3 31 15 127 26 212 12 85 21 158 21 163 0 4 88
7 195 7 l195 0 -5 -22z m-1756 -777 c12 -88 24 -189 28 -225 l6 -66 -130 0
c-110 0 -134 3 -152 18 -16 12 -35 70 -76 220 -30 111 -55 205 -55 207 0 3 80
5 178 5 l179 0 22 -159z m531 -66 l0 -225 -145 0 -144 0 -6 33 c-5 31 -55 405
-55 413 0 2 79 4 175 4 l175 0 0 -225z m546 163 c-7 -77 -35 -288 -45 -343
l-7 -40 -144 0 -145 0 -3 210 c-1 115 0 215 2 222 4 10 47 13 177 13 l172 0
-7 -62z m531 40 c-3 -13 -24 -106 -47 -208 -31 -136 -48 -190 -62 -202 -17
-15 -40 -18 -144 -18 -68 0 -124 3 -124 8 0 13 51 396 56 420 4 22 7 22 165
22 l161 0 -5 -22z m-1529 -1068 c119 -73 84 -249 -55 -275 -47 -9 -121 28
-147 74 -26 45 -25 114 1 149 52 70 136 92 201 52z m1263 -3 c115 -76 79 -243
-58 -272 -43 -9 -113 23 -143 65 -30 42 -32 112 -5 157 41 69 141 94 206 50z"/>
</g>
</svg>
