<?xml version="1.0" standalone="no"?>
<!DOCTYPE svg PUBLIC "-//W3C//DTD SVG 20010904//EN"
 "http://www.w3.org/TR/2001/REC-SVG-20010904/DTD/svg10.dtd">
<svg version="1.0" xmlns="http://www.w3.org/2000/svg"
 width="295.000000pt" height="263.000000pt" viewBox="0 0 295.000000 263.000000"
 preserveAspectRatio="xMidYMid meet">

<g transform="translate(0.000000,263.000000) scale(0.100000,-0.100000)"
fill="#000000" stroke="none">
<path d="M120 2371 c-25 -48 -26 -47 240 -231 113 -78 212 -149 221 -158 38
-39 79 -164 189 -582 28 -107 67 -251 86 -319 19 -69 34 -132 34 -140 -1 -9
-24 -29 -53 -46 -100 -58 -145 -169 -113 -279 64 -220 358 -248 460 -44 33 66
36 155 6 213 -11 22 -20 41 -20 42 0 2 181 3 401 3 378 0 401 -1 396 -17 -3
-10 -13 -38 -22 -63 -39 -105 21 -238 131 -293 157 -79 354 45 354 222 0 105
-75 211 -169 239 -27 9 -214 12 -648 12 l-610 0 -27 103 c-14 56 -26 108 -26
115 0 9 144 12 689 12 539 0 691 3 699 13 9 11 172 627 172 651 -1 42 29 41
-891 46 l-872 5 -36 87 -37 87 -244 171 c-253 175 -287 192 -310 151z m2262
-607 c3 -3 -23 -116 -58 -252 -35 -136 -64 -248 -64 -250 0 -1 -303 -1 -672 0
l-673 3 -21 80 c-64 240 -105 392 -110 408 -5 16 37 17 794 17 439 0 801 -3
804 -6z m-1326 -975 c59 -57 68 -127 23 -190 -31 -44 -74 -62 -132 -56 -39 3
-56 11 -85 40 -30 30 -36 44 -40 89 -3 44 0 59 20 88 52 77 150 91 214 29z
m1203 14 c44 -34 64 -69 64 -115 0 -87 -59 -148 -143 -148 -150 0 -195 203
-60 273 42 22 102 17 139 -10z"/>
</g>
</svg>
