<?xml version="1.0" standalone="no"?>
<!DOCTYPE svg PUBLIC "-//W3C//DTD SVG 20010904//EN"
 "http://www.w3.org/TR/2001/REC-SVG-20010904/DTD/svg10.dtd">
<svg version="1.0" xmlns="http://www.w3.org/2000/svg"
 width="333.000000pt" height="340.000000pt" viewBox="0 0 333.000000 340.000000"
 preserveAspectRatio="xMidYMid meet">

<g transform="translate(0.000000,340.000000) scale(0.100000,-0.100000)"
fill="#000000" stroke="none">
<path d="M2637 3370 c-14 -16 -27 -34 -29 -39 -2 -7 -29 -7 -78 1 -161 22
-374 -16 -524 -95 -88 -47 -213 -161 -306 -280 -29 -37 -56 -67 -60 -65 -4 2
-44 50 -90 107 -102 126 -187 198 -305 257 -320 159 -751 81 -1011 -183 -392
-397 -286 -1081 286 -1838 171 -226 327 -399 695 -774 252 -256 411 -391 458
-391 16 0 614 601 786 790 441 484 730 972 811 1368 30 149 28 346 -4 468 -14
50 -36 116 -50 147 -50 114 -152 243 -246 312 l-49 36 1 57 c1 60 -10 91 -45
130 -19 20 -30 22 -118 22 -95 0 -98 -1 -122 -30z m108 -30 c3 -6 -5 -14 -19
-20 -14 -5 -26 -16 -26 -25 0 -19 -16 -19 -24 0 -11 30 53 72 69 45z m85 -10
c11 -11 20 -27 20 -35 0 -22 -27 -18 -33 5 -3 12 -14 20 -26 20 -21 0 -27 10
-14 23 12 12 33 7 53 -13z m-46 -46 c22 -21 3 -56 -27 -52 -25 3 -34 32 -17
53 16 19 25 19 44 -1z m-81 -64 c3 -11 12 -20 21 -20 9 0 16 -4 16 -10 0 -5
-11 -10 -24 -10 -23 0 -36 16 -36 46 0 21 17 17 23 -6z m127 -15 c0 -8 -7 -15
-15 -15 -8 0 -15 7 -15 15 0 8 7 15 15 15 8 0 15 -7 15 -15z m-1742 -83 c167
-54 267 -153 457 -460 50 -81 95 -147 100 -147 5 0 29 34 53 75 116 195 183
291 251 363 137 143 254 191 471 191 214 1 347 -51 486 -189 90 -90 140 -170
176 -285 33 -109 33 -305 -1 -440 -84 -333 -321 -732 -687 -1160 -105 -122
-547 -575 -676 -691 l-76 -70 -209 205 c-681 667 -1033 1137 -1167 1558 -89
280 -89 553 0 729 66 132 220 261 369 310 137 44 333 49 453 11z"/>
<path d="M3063 3378 c-61 -67 -62 -165 -4 -232 60 -69 192 -64 250 10 17 22
21 41 21 105 0 69 -3 81 -26 108 -26 31 -27 31 -123 31 -88 0 -99 -2 -118 -22z
m137 -58 c0 -13 -7 -20 -20 -20 -13 0 -20 7 -20 20 0 13 7 20 20 20 13 0 20
-7 20 -20z m0 -60 c0 -13 -7 -20 -20 -20 -13 0 -20 7 -20 20 0 13 7 20 20 20
13 0 20 -7 20 -20z m0 -60 c0 -13 -7 -20 -20 -20 -13 0 -20 7 -20 20 0 13 7
20 20 20 13 0 20 -7 20 -20z"/>
</g>
</svg>
