<?xml version="1.0" standalone="no"?>
<!DOCTYPE svg PUBLIC "-//W3C//DTD SVG 20010904//EN"
 "http://www.w3.org/TR/2001/REC-SVG-20010904/DTD/svg10.dtd">
<svg version="1.0" xmlns="http://www.w3.org/2000/svg"
 width="363.000000pt" height="358.000000pt" viewBox="0 0 363.000000 358.000000"
 preserveAspectRatio="xMidYMid meet">

<g transform="translate(0.000000,358.000000) scale(0.100000,-0.100000)"
fill="#000000" stroke="none">
<path d="M0 1790 l0 -1790 25 0 25 0 0 1790 0 1790 -25 0 -25 0 0 -1790z"/>
<path d="M3580 1790 l0 -1790 25 0 25 0 0 1790 0 1790 -25 0 -25 0 0 -1790z"/>
<path d="M1420 3464 c-361 -46 -634 -177 -880 -424 -219 -219 -354 -470 -414
-771 -104 -515 50 -1035 414 -1399 199 -198 448 -335 723 -395 109 -24 379
-30 503 -11 258 39 545 175 726 344 l66 62 149 -153 c82 -83 261 -268 398
-410 137 -142 256 -262 266 -268 10 -5 36 -9 58 -9 74 0 130 87 99 157 -7 17
-190 215 -407 440 -216 224 -395 413 -398 419 -2 6 16 42 40 80 118 183 199
406 228 629 17 129 6 415 -20 527 -139 603 -577 1044 -1150 1159 -93 19 -328
32 -401 23z m300 -248 c288 -44 555 -192 738 -409 89 -106 123 -157 177 -265
93 -186 135 -368 135 -587 0 -362 -135 -683 -391 -930 -232 -223 -507 -335
-828 -335 -151 0 -265 18 -387 61 -467 164 -787 583 -834 1090 -75 812 612
1492 1390 1375z"/>
</g>
</svg>
